<svg xmlns="http://www.w3.org/2000/svg" viewBox="0 0 800 450" role="img" aria-label="Planilha de orçamento">
  <rect width="800" height="450" fill="#0b1a33"/>
  <rect x="60" y="54" width="680" height="342" rx="14" fill="#0e2140" stroke="#22406e"/>
  <text x="84" y="96" fill="#7db3ff" font-family="Inter,Arial,sans-serif" font-size="15" font-weight="600" letter-spacing="1.5">PLANILHA · orcamento_v2_final_REAL.xlsx</text>
  <g stroke="#22406e">
    <line x1="84" y1="118" x2="716" y2="118"/>
    <line x1="84" y1="160" x2="716" y2="160"/><line x1="84" y1="202" x2="716" y2="202"/>
    <line x1="84" y1="244" x2="716" y2="244"/><line x1="84" y1="286" x2="716" y2="286"/>
    <line x1="84" y1="328" x2="716" y2="328"/>
    <line x1="240" y1="118" x2="240" y2="360"/><line x1="430" y1="118" x2="430" y2="360"/><line x1="560" y1="118" x2="560" y2="360"/>
  </g>
  <g font-family="Inter,Arial,sans-serif" font-size="14" fill="#c7d3e6">
    <text x="96" y="146">Cimento CP II</text><text x="252" y="146" fill="#9fb2cc">=B4*C4</text><text x="442" y="146" fill="#9fb2cc">1,05</text><text x="572" y="146" fill="#ffffff">R$ 8.640</text>
    <text x="96" y="188">Bloco cerâmico</text><text x="252" y="188" fill="#ff8f8f">#REF!</text><text x="442" y="188" fill="#9fb2cc">1,03</text><text x="572" y="188" fill="#ff8f8f">#REF!</text>
    <text x="96" y="230">Areia média</text><text x="252" y="230" fill="#9fb2cc">=SOMA(D:D)</text><text x="442" y="230" fill="#9fb2cc">1,10</text><text x="572" y="230" fill="#ffffff">R$ 3.910</text>
    <text x="96" y="272">Aço CA-50</text><text x="252" y="272" fill="#9fb2cc">=B7*C7</text><text x="442" y="272" fill="#ffd36b">?</text><text x="572" y="272" fill="#ffffff">R$ 110.328</text>
    <text x="96" y="314">Argamassa</text><text x="252" y="314" fill="#9fb2cc">=B8*C8</text><text x="442" y="314" fill="#9fb2cc">1,08</text><text x="572" y="314" fill="#ffffff">R$ 12.740</text>
  </g>
  <text x="96" y="356" fill="#9fb2cc" font-family="Inter,Arial,sans-serif" font-size="13">Total</text>
  <text x="704" y="356" fill="#ff8f8f" font-family="Inter,Arial,sans-serif" font-size="17" font-weight="700" text-anchor="end">R$ #REF!</text>
</svg>
